# xmcd
#
# Track frame offsets: 
#        150
#        14795
#        32041
#        49705
#        60593
#        79968
#        98395
#        123284
#        143385
#        157021
#        177836
#
# Disc length: 2639 seconds
#
# Revision: 0
# Processed by: cddbd v1.5.2PL0 Copyright (c) Steve Scherf et al.
# Submitted via: ExactAudioCopy v0.99pb5
#
DISCID=850a4d0b
DTITLE=Shawn Pittman - Undeniable
DYEAR=2009
DGENRE=Blues
TTITLE0=Hard To Hold On
TTITLE1=Young Girl
TTITLE2=Change Of Heart
TTITLE3=Who's Your Man
TTITLE4=The Hard Way
TTITLE5=Somebody, Please
TTITLE6=Righteous Woman
TTITLE7=Sucker For Love
TTITLE8=Blues For Juanita
TTITLE9=Mindin' My Own Business
TTITLE10=Lookin' Good
EXTD=
EXTT0=
EXTT1=
EXTT2=
EXTT3=
EXTT4=
EXTT5=
EXTT6=
EXTT7=
EXTT8=
EXTT9=
EXTT10=
PLAYORDER=
